<svg baseProfile="tiny" xmlns="http://www.w3.org/2000/svg" width="93.54" height="93.51" viewBox="0 0 93.54 93.51"><path d="M46.8.02c-5.21 0-9.43 6.29-9.43 14.06 0 4.82 1.6 9 4.11 11.61 2.51 2.62 2.86 3.4 3.5 5.14.45 1.24.41 3.42.33 7.03h3c-.08-3.62-.13-5.79.32-7.03.64-1.74.99-2.52 3.5-5.14 2.51-2.61 4.11-6.79 4.11-11.61C56.23 6.31 52.01.02 46.8.02zm0 93.47c5.21 0 9.43-6.29 9.43-14.06 0-4.82-1.6-8.99-4.11-11.61-2.51-2.62-2.86-3.4-3.5-5.14-.45-1.25-.41-3.42-.32-7.03h-3c.08 3.61.13 5.79-.33 7.03-.64 1.74-.99 2.52-3.5 5.14-2.51 2.62-4.11 6.79-4.11 11.61.01 7.77 4.23 14.06 9.44 14.06z" fill="#B97C46"/><path d="M13.75 13.71c-3.68 3.68-2.22 11.12 3.27 16.61 3.41 3.41 7.49 5.23 11.12 5.3s4.43.38 6.11 1.16c1.2.56 2.71 2.12 5.2 4.74l1.06-1.06 1.06-1.06c-2.61-2.5-4.18-4-4.74-5.2-.78-1.68-1.09-2.49-1.16-6.11-.07-3.63-1.89-7.71-5.3-11.12-5.5-5.49-12.93-6.95-16.62-3.26zm66.1 66.09c3.68-3.68 2.22-11.11-3.27-16.61-3.41-3.41-7.49-5.23-11.12-5.3-3.62-.08-4.43-.38-6.11-1.16-1.2-.56-2.71-2.12-5.2-4.74l-1.06 1.06-1.06 1.06c2.61 2.49 4.18 4 4.74 5.2.78 1.69 1.08 2.49 1.16 6.11.08 3.63 1.9 7.71 5.3 11.12 5.5 5.49 12.94 6.95 16.62 3.26z" fill="#BB573E"/><path d="M.06 46.75c0 5.21 6.29 9.43 14.06 9.43 4.82 0 8.99-1.6 11.61-4.11 2.62-2.51 3.4-2.86 5.14-3.5 1.24-.46 3.41-.42 7.03-.33v-3c-3.61.08-5.79.13-7.03-.33-1.74-.64-2.52-.99-5.14-3.5-2.62-2.51-6.79-4.11-11.61-4.11C6.36 37.32.06 41.55.06 46.75zm93.48 0c0-5.21-6.3-9.43-14.06-9.43-4.82 0-8.99 1.6-11.61 4.11-2.62 2.51-3.4 2.86-5.15 3.5-1.24.46-3.42.41-7.03.33v3c3.61-.09 5.78-.13 7.03.33 1.75.64 2.53.99 5.15 3.5 2.62 2.51 6.79 4.11 11.61 4.11 7.77-.01 14.06-4.23 14.06-9.45z" fill="#997D5E"/><path d="M13.75 79.81c3.69 3.69 11.12 2.22 16.61-3.27 3.41-3.41 5.23-7.49 5.3-11.12.08-3.62.38-4.43 1.16-6.11.56-1.2 2.12-2.7 4.74-5.2l-1.06-1.06-1.05-1.06c-2.5 2.62-4 4.19-5.21 4.74-1.68.78-2.49 1.09-6.11 1.16-3.62.07-7.71 1.89-11.12 5.31-5.48 5.49-6.94 12.92-3.26 16.61zm66.1-66.1c-3.68-3.69-11.12-2.22-16.61 3.27-3.41 3.41-5.23 7.5-5.3 11.12-.08 3.62-.39 4.43-1.17 6.11-.56 1.2-2.13 2.71-4.74 5.2l1.06 1.06 1.06 1.06c2.49-2.61 4-4.18 5.2-4.74 1.69-.78 2.49-1.09 6.11-1.16s7.71-1.9 11.12-5.3c5.49-5.5 6.95-12.94 3.27-16.62z" fill="#F7C782"/><path fill="#795032" d="M46.75 0c-5.5 0-9.96 5.38-9.96 12.03 0 4.12 1.69 7.69 4.34 9.93 2.65 2.24 3.02 2.91 3.69 4.4.48 1.06.44 5.3.35 8.39h3.16c-.09-3.09-.14-7.33.34-8.39.68-1.49 1.04-2.16 3.7-4.4 2.64-2.24 4.34-5.81 4.34-9.93C56.71 5.38 52.25 0 46.75 0z"/><path fill="#AD6528" d="M46.75 26.81c-.09-.56-.21-.91-.32-1.17-.79-1.76-1.36-2.65-4.16-5.02-2.36-2-3.72-5.13-3.72-8.59 0-5.66 3.68-10.27 8.2-10.27s8.2 4.61 8.2 10.27c0 3.46-1.35 6.59-3.71 8.59-2.8 2.36-3.36 3.25-4.16 5.02-.12.26-.23.6-.33 1.17z"/><path fill="#795032" d="M46.75 93.51c5.5 0 9.96-5.39 9.96-12.03 0-4.13-1.69-7.69-4.34-9.93-2.65-2.24-3.02-2.9-3.7-4.4-.48-1.06-.43-5.3-.34-8.39h-3.16c.09 3.09.14 7.33-.35 8.39-.67 1.49-1.04 2.16-3.69 4.4s-4.34 5.81-4.34 9.93c.01 6.64 4.47 12.03 9.96 12.03z"/><path fill="#AD6528" d="M46.75 91.75c-4.52 0-8.2-4.61-8.2-10.27 0-3.46 1.35-6.59 3.72-8.59 2.79-2.37 3.36-3.25 4.16-5.02.12-.26.23-.61.32-1.17.09.57.21.91.32 1.17.79 1.77 1.36 2.65 4.16 5.02 2.36 2 3.71 5.12 3.71 8.59.01 5.67-3.66 10.27-8.19 10.27z"/><path fill="#621511" d="M13.69 13.69c-3.89 3.89-3.23 10.85 1.46 15.55 2.92 2.92 6.64 4.25 10.09 3.95 3.46-.29 4.19-.08 5.72.5 1.09.41 4.05 3.44 6.18 5.69l1.12-1.12 1.12-1.11c-2.25-2.12-5.28-5.09-5.69-6.19-.58-1.53-.79-2.26-.5-5.72.29-3.45-1.03-7.17-3.95-10.09-4.7-4.69-11.66-5.35-15.55-1.46z"/><path fill="#AF2D26" d="M32.65 32.65a4.93 4.93 0 0 0-1.06-.6c-1.18-.45-2.1-.74-3.86-.74-.69 0-1.53.05-2.62.13-.26.02-.52.04-.79.04-2.86 0-5.67-1.24-7.91-3.48-1.98-1.98-3.21-4.47-3.44-7-.23-2.41.47-4.56 1.98-6.06 1.32-1.32 3.12-2.02 5.19-2.02 2.78 0 5.65 1.27 7.86 3.48 2.45 2.45 3.7 5.62 3.45 8.7-.31 3.65-.08 4.68.61 6.49.09.27.25.59.59 1.06z"/><path fill="#621511" d="M79.81 79.81c3.89-3.89 3.23-10.84-1.46-15.54-2.92-2.92-6.63-4.24-10.09-3.95-3.46.29-4.19.08-5.72-.5-1.09-.42-4.05-3.44-6.17-5.69l-1.12 1.12-1.12 1.12c2.25 2.12 5.28 5.09 5.69 6.18.58 1.53.79 2.26.5 5.72-.29 3.46 1.04 7.18 3.95 10.09 4.7 4.69 11.66 5.34 15.54 1.45z"/><path fill="#AF2D26" d="M73.38 80.6c-2.78 0-5.65-1.27-7.86-3.49-2.45-2.45-3.7-5.62-3.45-8.7.3-3.65.08-4.68-.61-6.49-.1-.27-.27-.59-.6-1.06.46.33.79.5 1.06.6 1.18.45 2.1.75 3.86.75.69 0 1.52-.04 2.62-.14.26-.02.53-.03.79-.03 2.86 0 5.67 1.23 7.91 3.48 4.01 4 4.66 9.86 1.46 13.06-1.31 1.31-3.11 2.02-5.18 2.02z"/><path fill="#574637" d="M0 46.75c0 5.5 5.38 9.96 12.03 9.96 4.12 0 7.69-1.69 9.93-4.34 2.24-2.65 2.91-3.02 4.4-3.69 1.06-.48 5.3-.44 8.39-.35v-3.16c-3.09.09-7.33.13-8.39-.35-1.49-.67-2.16-1.04-4.4-3.69s-5.81-4.34-9.93-4.34C5.39 36.8 0 41.26 0 46.75z"/><path fill="#866542" d="M12.03 54.95c-5.66 0-10.27-3.68-10.27-8.2s4.61-8.2 10.27-8.2c3.46 0 6.59 1.35 8.59 3.72 2.36 2.8 3.25 3.36 5.02 4.16.26.12.6.23 1.16.32-.56.09-.9.21-1.16.33-1.76.8-2.65 1.36-5.02 4.16-2 2.36-5.13 3.71-8.59 3.71z"/><path fill="#574637" d="M93.51 46.75c0-5.5-5.39-9.96-12.03-9.96-4.12 0-7.69 1.69-9.93 4.34-2.23 2.65-2.9 3.02-4.4 3.69-1.06.48-5.3.44-8.39.35v3.16c3.1-.09 7.33-.13 8.39.35 1.49.67 2.16 1.04 4.4 3.69s5.81 4.34 9.94 4.34c6.63 0 12.02-4.46 12.02-9.96z"/><path fill="#866542" d="M81.49 54.95c-3.47 0-6.6-1.35-8.59-3.72-2.37-2.8-3.26-3.36-5.02-4.16-.26-.12-.59-.23-1.16-.33.57-.09.9-.2 1.16-.32 1.76-.79 2.65-1.36 5.02-4.16 1.99-2.36 5.12-3.72 8.59-3.72 5.66 0 10.27 3.68 10.27 8.2-.01 4.53-4.62 8.21-10.27 8.21z"/><path fill="#B38146" d="M13.69 79.81c3.88 3.89 10.85 3.23 15.54-1.46 2.92-2.91 4.24-6.63 3.96-10.09-.29-3.46-.08-4.19.5-5.72.41-1.09 3.44-4.06 5.69-6.18l-1.12-1.12-1.12-1.12c-2.12 2.25-5.09 5.28-6.18 5.69-1.53.57-2.27.79-5.72.5-3.46-.29-7.17 1.04-10.09 3.95-4.69 4.71-5.35 11.67-1.46 15.55z"/><path fill="#F1A534" d="M20.13 80.6c-2.07 0-3.87-.7-5.19-2.02-1.5-1.5-2.21-3.66-1.98-6.06.24-2.54 1.46-5.02 3.44-7 2.24-2.24 5.05-3.48 7.91-3.48.27 0 .53.01.79.03 1.1.09 1.93.14 2.62.14 1.77 0 2.69-.3 3.87-.75.27-.1.59-.27 1.06-.6-.33.46-.5.79-.6 1.06-.69 1.81-.92 2.84-.61 6.49.26 3.08-1 6.25-3.45 8.7-2.21 2.21-5.08 3.49-7.86 3.49z"/><path fill="#B38146" d="M79.82 13.69c-3.89-3.89-10.85-3.23-15.55 1.47-2.92 2.91-4.24 6.63-3.95 10.09.29 3.46.08 4.19-.5 5.72-.41 1.1-3.44 4.06-5.69 6.19l1.12 1.11 1.12 1.12c2.12-2.25 5.09-5.28 6.18-5.69 1.54-.58 2.27-.79 5.72-.5 3.46.29 7.17-1.03 10.09-3.95 4.68-4.71 5.34-11.67 1.46-15.56z"/><path fill="#F1A534" d="M60.86 32.65c.33-.47.5-.79.6-1.06.69-1.81.92-2.84.61-6.49-.25-3.08 1-6.25 3.45-8.7 2.22-2.22 5.08-3.48 7.86-3.48 2.08 0 3.87.7 5.19 2.02 1.5 1.5 2.21 3.65 1.98 6.06-.23 2.53-1.46 5.02-3.44 6.99-2.24 2.25-5.05 3.48-7.91 3.48-.26 0-.52-.01-.79-.04-1.1-.09-1.93-.13-2.62-.13-1.77 0-2.68.29-3.86.74-.28.11-.61.28-1.07.61z"/><path fill="#795032" d="M46.75 32.12c-8.09 0-14.64 6.55-14.64 14.63 0 8.09 6.55 14.64 14.64 14.64 8.08 0 14.64-6.55 14.64-14.64 0-8.08-6.55-14.63-14.64-14.63zm.1 22.02c-4.03 0-7.3-3.26-7.3-7.29s3.27-7.3 7.3-7.3c4.03 0 7.3 3.27 7.3 7.3 0 4.03-3.27 7.29-7.3 7.29z"/><path fill="#AD6528" d="M46.75 59.6c-7.08 0-12.84-5.76-12.84-12.84s5.76-12.84 12.84-12.84 12.84 5.76 12.84 12.84c.01 7.07-5.76 12.84-12.84 12.84zm.1-21.85c-5.02 0-9.09 4.08-9.09 9.1 0 5.01 4.08 9.09 9.09 9.09s9.09-4.08 9.09-9.09c.01-5.02-4.07-9.1-9.09-9.1z"/></svg>